<svg width="16" height="16" viewBox="0 0 16 16" fill="none" xmlns="http://www.w3.org/2000/svg">
<path d="M7.33325 3.33334H8.66658" stroke="#092325" stroke-linecap="round" stroke-linejoin="round"/>
<path d="M12.6666 8C12.2219 11.5553 11.1113 13.3333 9.33325 13.3333H6.66659C4.88859 13.3333 3.77792 11.5553 3.33325 8" stroke="#092325" stroke-linecap="round" stroke-linejoin="round"/>
<path d="M7.33325 10.6667C7.33325 11.1113 7.55525 11.3333 7.99992 11.3333C8.44459 11.3333 8.66658 11.1113 8.66658 10.6667H7.33325Z" fill="#FFA900" stroke="#092325" stroke-linecap="round" stroke-linejoin="round"/>
<path d="M8 12V13.3333" stroke="#092325" stroke-linecap="round" stroke-linejoin="round"/>
<path d="M6.66675 7.33334V7.34334" stroke="#092325" stroke-linecap="round" stroke-linejoin="round"/>
<path d="M9.33325 7.33334V7.34334" stroke="#092325" stroke-linecap="round" stroke-linejoin="round"/>
<path d="M3.33326 2.66666L7.33326 3.31332L3.17459 7.77199C3.05777 7.90329 2.89469 7.98432 2.71948 7.99812C2.54427 8.01191 2.37052 7.9574 2.23459 7.84599C2.1424 7.77098 2.07311 7.67162 2.03457 7.55919C1.99603 7.44676 1.9898 7.32578 2.01659 7.20999L3.33326 2.66666Z" fill="#FFA900" stroke="#092325" stroke-linecap="round" stroke-linejoin="round"/>
<path d="M12.6667 2.66666L8.66675 3.31332L12.8254 7.77199C13.0641 8.04399 13.4847 8.07732 13.7654 7.84599C13.8576 7.77098 13.9269 7.67162 13.9654 7.55919C14.004 7.44676 14.0102 7.32578 13.9834 7.20999L12.6667 2.66666Z" fill="#FFA900" stroke="#092325" stroke-linecap="round" stroke-linejoin="round"/>
</svg>
