<svg width="600" height="600" viewBox="0 0 600 600" fill="none" xmlns="http://www.w3.org/2000/svg">
<path opacity="0.7" d="M311.832 567C455.939 567 572.76 505.366 572.76 429.336C572.76 353.306 455.939 291.672 311.832 291.672C167.725 291.672 50.9041 353.306 50.9041 429.336C50.9041 505.366 167.725 567 311.832 567Z" fill="#EBEBEB"/>
<path opacity="0.07" d="M193.752 490.644C236.274 490.644 270.744 470.744 270.744 446.196C270.744 421.648 236.274 401.748 193.752 401.748C151.231 401.748 116.76 421.648 116.76 446.196C116.76 470.744 151.231 490.644 193.752 490.644Z" fill="black"/>
<path opacity="0.07" d="M377.928 459.9C438.277 459.9 487.2 431.656 487.2 396.816C487.2 361.976 438.277 333.732 377.928 333.732C317.579 333.732 268.656 361.976 268.656 396.816C268.656 431.656 317.579 459.9 377.928 459.9Z" fill="black"/>
<path d="M512.508 375.372L503.28 370.104C503.28 370.104 498.852 345.732 502.164 324.768C506.82 295.308 526.872 285.168 534.168 288.072C541.464 290.976 543.156 299.736 530.004 316.752C522.24 326.796 512.256 348 512.508 375.372Z" fill="#FFA900"/>
<g opacity="0.1">
<path d="M512.508 375.372L503.28 370.104C503.28 370.104 498.852 345.732 502.164 324.768C506.82 295.308 526.872 285.168 534.168 288.072C541.464 290.976 543.156 299.736 530.004 316.752C522.24 326.796 512.256 348 512.508 375.372Z" fill="black"/>
</g>
<path d="M509.16 363.672H509.256C509.342 363.66 509.424 363.632 509.498 363.588C509.572 363.544 509.637 363.485 509.689 363.416C509.74 363.347 509.777 363.268 509.798 363.184C509.818 363.1 509.822 363.013 509.808 362.928C506.004 335.328 517.092 305.124 529.56 292.944C529.682 292.819 529.75 292.651 529.75 292.476C529.75 292.301 529.682 292.133 529.56 292.008C529.499 291.946 529.426 291.897 529.345 291.864C529.265 291.831 529.179 291.813 529.092 291.813C529.005 291.813 528.919 291.831 528.839 291.864C528.758 291.897 528.685 291.946 528.624 292.008C515.94 304.404 504.624 335.112 508.5 363.108C508.523 363.266 508.603 363.41 508.724 363.514C508.846 363.617 509 363.674 509.16 363.672Z" fill="white"/>
<path d="M538.092 390.156C539.556 390.996 542.556 389.16 543.708 388.392C545.678 387.05 547.269 385.223 548.328 383.088C549.53 380.663 549.949 377.925 549.528 375.252C549.291 373.847 548.958 372.46 548.532 371.1C548.148 369.744 547.764 368.4 547.332 367.056C546.864 365.749 546.664 364.362 546.744 362.976C547.104 360.216 549.552 358.284 551.784 356.616C554.244 354.768 556.812 352.332 556.8 348.996C556.617 346.417 555.588 343.97 553.872 342.036C552.276 340.02 550.392 338.244 548.952 336.12C547.825 334.635 547.237 332.811 547.284 330.948C547.433 329.807 547.813 328.709 548.4 327.72C549.75 325.657 550.933 323.49 551.94 321.24C552.756 318.912 552.636 316.02 550.824 314.352C550.012 313.746 549.088 313.308 548.106 313.063C547.123 312.817 546.101 312.77 545.1 312.924C543.209 313.16 541.391 313.803 539.772 314.808C534.492 317.736 531.48 324 525.876 326.256C523.647 326.942 521.379 327.495 519.084 327.912C516.84 328.512 514.536 329.664 513.492 331.74C511.44 335.856 515.256 340.92 513.804 345.276C512.532 349.14 508.776 350.616 506.676 354.096C505.812 355.63 505.466 357.402 505.692 359.148C505.873 362.098 506.593 364.99 507.816 367.68C509.185 370.358 510.754 372.929 512.508 375.372C512.592 375.468 537.876 390 538.092 390.156Z" fill="#FFA900"/>
<path d="M523.116 382.176C523.203 382.175 523.289 382.155 523.369 382.12C523.449 382.084 523.52 382.033 523.58 381.969C523.639 381.905 523.685 381.83 523.715 381.748C523.744 381.666 523.757 381.579 523.752 381.492C522.672 355.392 534.972 326.568 543.912 318.192C544.033 318.069 544.101 317.903 544.101 317.73C544.101 317.557 544.033 317.391 543.912 317.268C543.852 317.205 543.779 317.155 543.699 317.12C543.618 317.086 543.532 317.068 543.444 317.068C543.357 317.068 543.27 317.086 543.19 317.12C543.109 317.155 543.037 317.205 542.976 317.268C533.856 325.812 521.304 355.116 522.408 381.588C522.416 381.673 522.44 381.756 522.48 381.832C522.52 381.908 522.574 381.975 522.64 382.03C522.706 382.084 522.782 382.125 522.863 382.15C522.945 382.176 523.031 382.184 523.116 382.176Z" fill="white"/>
<path d="M527.028 351.336H527.232C533.414 349.631 539.764 348.605 546.168 348.276C546.255 348.273 546.34 348.253 546.419 348.217C546.498 348.181 546.569 348.129 546.628 348.066C546.687 348.002 546.733 347.928 546.763 347.846C546.793 347.765 546.807 347.679 546.804 347.592C546.804 347.505 546.787 347.418 546.752 347.338C546.716 347.259 546.665 347.187 546.601 347.128C546.536 347.069 546.46 347.025 546.377 346.997C546.295 346.97 546.207 346.96 546.12 346.968C539.587 347.288 533.108 348.322 526.8 350.052C526.654 350.102 526.53 350.202 526.45 350.334C526.37 350.465 526.338 350.621 526.361 350.774C526.384 350.927 526.46 351.066 526.575 351.169C526.69 351.272 526.838 351.331 526.992 351.336H527.028Z" fill="white"/>
<path d="M118.032 366.504L127.86 360.888C127.86 360.888 132.576 334.884 129.06 312.54C124.092 281.136 102.66 270.3 94.932 273.42C87.204 276.54 85.332 285.852 99.372 303.996C107.652 314.712 118.296 337.344 118.032 366.504Z" fill="#FFA900"/>
<g opacity="0.1">
<path d="M118.032 366.504L127.86 360.888C127.86 360.888 132.576 334.884 129.06 312.54C124.092 281.136 102.66 270.3 94.932 273.42C87.204 276.54 85.332 285.852 99.372 303.996C107.652 314.712 118.296 337.344 118.032 366.504Z" fill="black"/>
</g>
<path d="M121.596 354H121.5C121.316 353.973 121.15 353.875 121.038 353.727C120.926 353.579 120.876 353.392 120.9 353.208C124.968 323.796 113.136 291.576 99.8521 278.58C99.7245 278.45 99.6529 278.275 99.6526 278.093C99.6523 277.911 99.7233 277.736 99.8505 277.606C99.9776 277.476 100.151 277.401 100.333 277.396C100.515 277.392 100.691 277.46 100.824 277.584C114.36 290.784 126.408 323.556 122.292 353.4C122.269 353.567 122.185 353.721 122.057 353.831C121.929 353.942 121.765 354.002 121.596 354Z" fill="white"/>
<path d="M90.7441 382.26C89.1961 383.16 85.9441 381.204 84.7441 380.388C82.6428 378.953 80.9447 377.003 79.8121 374.724C78.5414 372.119 78.1216 369.181 78.6121 366.324C78.8573 364.821 79.2102 363.337 79.668 361.884C80.076 360.456 80.484 359.016 80.868 357.576C81.3712 356.186 81.5835 354.707 81.4921 353.232C81.1201 350.292 78.504 348.228 76.128 346.44C73.524 344.52 70.8 341.928 70.8 338.4C70.9929 335.648 72.0898 333.036 73.92 330.972C75.6 328.8 77.628 326.904 79.2 324.636C80.4084 323.059 81.0395 321.114 80.988 319.128C80.8286 317.91 80.4201 316.738 79.788 315.684C78.588 313.38 76.884 311.256 76.02 308.784C75.156 306.312 75.276 303.216 77.22 301.44C78.804 299.976 81.168 299.772 83.316 299.916C85.3313 300.163 87.2684 300.847 88.9921 301.92C94.6201 305.052 97.8361 311.712 103.812 314.124C106.171 314.868 108.576 315.457 111.012 315.888C113.412 316.524 115.812 317.76 117.012 319.98C119.208 324.36 115.14 329.76 116.676 334.38C118.044 338.496 122.04 340.08 124.284 343.788C125.202 345.425 125.572 347.313 125.34 349.176C125.138 352.321 124.365 355.403 123.06 358.272C121.604 361.129 119.935 363.873 118.068 366.48C117.936 366.6 90.9841 382.128 90.7441 382.26Z" fill="#FFA900"/>
<path d="M106.716 373.764C106.529 373.755 106.354 373.673 106.226 373.536C106.098 373.4 106.029 373.219 106.032 373.032C107.232 345.192 94.0321 314.46 84.5401 305.532C84.4089 305.399 84.3353 305.221 84.3353 305.034C84.3353 304.848 84.4089 304.669 84.5401 304.536C84.6741 304.408 84.8525 304.336 85.0381 304.336C85.2236 304.336 85.4021 304.408 85.5361 304.536C95.2561 313.644 108.648 344.892 107.472 373.128C107.465 373.22 107.439 373.309 107.397 373.39C107.355 373.472 107.297 373.544 107.226 373.603C107.156 373.663 107.075 373.707 106.987 373.735C106.9 373.762 106.808 373.772 106.716 373.764Z" fill="white"/>
<path d="M102.54 340.872C102.473 340.884 102.403 340.884 102.336 340.872C95.7382 339.057 88.9622 337.967 82.128 337.62C81.9423 337.611 81.7678 337.529 81.642 337.392C81.5163 337.255 81.4495 337.074 81.456 336.888C81.4574 336.795 81.4778 336.703 81.5158 336.618C81.5539 336.534 81.6088 336.457 81.6774 336.394C81.7459 336.332 81.8265 336.283 81.9143 336.253C82.0021 336.222 82.0952 336.209 82.188 336.216C89.1406 336.572 96.0335 337.687 102.744 339.54C102.909 339.584 103.052 339.688 103.146 339.831C103.24 339.973 103.278 340.146 103.253 340.315C103.228 340.484 103.141 340.638 103.009 340.748C102.878 340.857 102.711 340.914 102.54 340.908V340.872Z" fill="white"/>
<path d="M452.22 406.92C455.664 408.756 463.02 408.252 468.936 404.328C474.852 400.404 476.292 391.572 474.144 385.128C471.528 377.328 466.944 373.512 465.228 368.844C463.512 364.176 463.596 357.336 461.412 353.244C460.534 351.68 459.329 350.324 457.879 349.268C456.43 348.212 454.77 347.481 453.012 347.124C451.891 346.867 450.726 346.871 449.607 347.135C448.487 347.399 447.444 347.917 446.556 348.648L444.828 350.028L452.22 406.92Z" fill="#263238"/>
<path d="M440.736 382.8L447.408 391.632C447.408 391.632 445.824 402.696 447.996 405.252C451.2 409.032 455.892 409.116 463.272 405.636C471.672 401.664 472.632 393.372 471.288 387.228C469.392 378.48 460.236 373.008 459.936 364.368C459.636 355.728 454.02 344.652 443.352 350.928C435.78 355.224 429.24 363.048 429.24 363.048L440.736 382.8Z" fill="#37474F"/>
<path d="M447.408 391.572C450.38 389.516 453.806 388.211 457.392 387.768C457.67 387.761 457.942 387.683 458.182 387.541C458.423 387.4 458.623 387.2 458.764 386.96C458.906 386.72 458.984 386.448 458.992 386.17C458.999 385.891 458.936 385.615 458.808 385.368C458.665 385.078 458.44 384.838 458.159 384.678C457.879 384.517 457.558 384.444 457.236 384.468C454.836 384.624 448.992 385.404 445.596 389.136C444.876 391.416 447.408 391.572 447.408 391.572Z" fill="#FFA900"/>
<path d="M443.34 386.184C446.199 383.978 449.551 382.499 453.108 381.876C453.375 381.848 453.631 381.755 453.854 381.605C454.077 381.455 454.26 381.253 454.386 381.016C454.513 380.78 454.58 380.515 454.581 380.247C454.582 379.978 454.517 379.714 454.392 379.476C454.233 379.194 453.995 378.965 453.707 378.817C453.419 378.67 453.093 378.611 452.772 378.648C450.372 378.936 444.588 380.016 441.396 383.916C440.796 386.16 443.34 386.184 443.34 386.184Z" fill="#FFA900"/>
<path opacity="0.3" d="M447.408 391.572C450.38 389.516 453.806 388.211 457.392 387.768C457.67 387.761 457.942 387.683 458.182 387.541C458.423 387.4 458.623 387.2 458.764 386.96C458.906 386.72 458.984 386.448 458.992 386.17C458.999 385.891 458.936 385.615 458.808 385.368C458.665 385.078 458.44 384.838 458.159 384.678C457.879 384.517 457.558 384.444 457.236 384.468C454.836 384.624 448.992 385.404 445.596 389.136C444.876 391.416 447.408 391.572 447.408 391.572Z" fill="black"/>
<path opacity="0.3" d="M443.34 386.184C446.199 383.978 449.551 382.499 453.108 381.876C453.375 381.848 453.631 381.755 453.854 381.605C454.077 381.455 454.26 381.253 454.386 381.016C454.513 380.78 454.58 380.515 454.581 380.247C454.582 379.978 454.517 379.714 454.392 379.476C454.233 379.194 453.995 378.965 453.707 378.817C453.419 378.67 453.093 378.611 452.772 378.648C450.372 378.936 444.588 380.016 441.396 383.916C440.796 386.16 443.34 386.184 443.34 386.184Z" fill="black"/>
<path d="M345.18 403.2L325.332 395.328C325.656 390.216 322.152 381.66 318.72 373.2L342.132 365.664L348.132 388.212L345.18 403.2Z" fill="#FFA8A7"/>
<path d="M288.528 420.636C288.006 422.237 288.105 423.976 288.804 425.508C289.488 426.936 296.928 431.124 306.96 430.452C314.399 429.949 321.567 427.463 327.72 423.252C331.548 420.72 335.532 420.252 340.5 419.964C345.468 419.676 351.996 417.204 353.088 414.876C354.18 412.548 352.92 408.552 352.92 408.552L288.528 420.636Z" fill="#263238"/>
<path d="M329.04 389.316L328.236 389.148C327.805 389.035 327.356 389.01 326.916 389.076C326.443 389.234 326.026 389.525 325.716 389.916C324.736 391.173 323.876 392.518 323.148 393.936C321.048 397.368 316.632 400.212 311.808 402.804C308.532 404.568 305.316 405.936 301.932 407.46C298.548 408.984 293.892 409.956 291.132 411.78C287.196 414.432 286.68 421.104 291.132 423.78C295.008 426.048 305.196 428.508 315.876 425.484C321.696 423.84 328.152 417.624 335.796 417.024C340.596 416.64 349.836 415.272 352.956 411.588C354.156 409.956 352.572 404.772 351.3 400.284C349.92 395.4 349.416 386.784 347.796 387.216C347.796 387.216 348.228 388.416 347.604 389.088C346.98 389.76 344.736 391.044 344.088 391.608C342.959 392.717 342.047 394.028 341.4 395.472C341.136 396.119 340.645 396.648 340.02 396.96C339.204 397.272 338.592 396.756 337.872 396.432C336.961 396.015 335.931 395.938 334.968 396.216C335.063 395.248 335.236 394.289 335.484 393.348C335.591 393.052 335.616 392.733 335.556 392.424C335.426 392.132 335.208 391.889 334.932 391.728C333.154 390.53 331.148 389.709 329.04 389.316Z" fill="#37474F"/>
<path d="M316.308 400.164C316.659 399.494 317.173 398.924 317.802 398.504C318.431 398.085 319.155 397.83 319.908 397.764C322.116 397.356 326.016 398.964 328.452 400.98C328.681 401.168 328.861 401.41 328.976 401.683C329.091 401.957 329.138 402.254 329.112 402.55C329.086 402.845 328.988 403.13 328.827 403.379C328.666 403.628 328.447 403.835 328.188 403.98C327.859 404.154 327.485 404.226 327.115 404.185C326.745 404.144 326.395 403.993 326.112 403.752C323.437 401.323 319.919 400.035 316.308 400.164Z" fill="#FFA900"/>
<path d="M309.456 404.004C309.937 403.325 310.574 402.772 311.313 402.39C312.052 402.008 312.872 401.808 313.704 401.808C313.704 401.808 319.476 401.976 323.052 405.312C323.272 405.493 323.446 405.725 323.557 405.988C323.668 406.251 323.714 406.537 323.69 406.821C323.667 407.105 323.574 407.38 323.421 407.621C323.268 407.862 323.059 408.062 322.812 408.204C322.497 408.378 322.137 408.449 321.779 408.408C321.422 408.368 321.087 408.216 320.82 407.976C319.345 406.504 317.558 405.382 315.591 404.694C313.624 404.007 311.527 403.771 309.456 404.004Z" fill="#FFA900"/>
<path d="M301.896 407.46C302.447 406.832 303.126 406.331 303.888 405.989C304.65 405.648 305.477 405.474 306.312 405.48C309.59 405.681 312.72 406.916 315.252 409.008C315.472 409.19 315.646 409.423 315.757 409.687C315.868 409.951 315.913 410.237 315.89 410.523C315.866 410.808 315.774 411.083 315.621 411.325C315.468 411.567 315.259 411.768 315.012 411.912C314.696 412.083 314.335 412.151 313.978 412.108C313.621 412.065 313.287 411.913 313.02 411.672C311.621 410.154 309.887 408.983 307.956 408.251C306.025 407.52 303.95 407.249 301.896 407.46Z" fill="#FFA900"/>
<path opacity="0.3" d="M316.308 400.164C316.659 399.494 317.173 398.924 317.802 398.504C318.431 398.085 319.155 397.83 319.908 397.764C322.116 397.356 326.016 398.964 328.452 400.98C328.681 401.168 328.861 401.41 328.976 401.683C329.091 401.957 329.138 402.254 329.112 402.55C329.086 402.845 328.988 403.13 328.827 403.379C328.666 403.628 328.447 403.835 328.188 403.98C327.859 404.154 327.485 404.226 327.115 404.185C326.745 404.144 326.395 403.993 326.112 403.752C323.437 401.323 319.919 400.035 316.308 400.164Z" fill="black"/>
<path opacity="0.3" d="M309.456 404.004C309.937 403.325 310.574 402.772 311.313 402.39C312.052 402.008 312.872 401.808 313.704 401.808C313.704 401.808 319.476 401.976 323.052 405.312C323.272 405.493 323.446 405.725 323.557 405.988C323.668 406.251 323.714 406.537 323.69 406.821C323.667 407.105 323.574 407.38 323.421 407.621C323.268 407.862 323.059 408.062 322.812 408.204C322.497 408.378 322.137 408.449 321.779 408.408C321.422 408.368 321.087 408.216 320.82 407.976C319.345 406.504 317.558 405.382 315.591 404.694C313.624 404.007 311.527 403.771 309.456 404.004Z" fill="black"/>
<path opacity="0.3" d="M301.896 407.46C302.447 406.832 303.126 406.331 303.888 405.989C304.65 405.648 305.477 405.474 306.312 405.48C309.59 405.681 312.72 406.916 315.252 409.008C315.472 409.19 315.646 409.423 315.757 409.687C315.868 409.951 315.913 410.237 315.89 410.523C315.866 410.808 315.774 411.083 315.621 411.325C315.468 411.567 315.259 411.768 315.012 411.912C314.696 412.083 314.335 412.151 313.978 412.108C313.621 412.065 313.287 411.913 313.02 411.672C311.621 410.154 309.887 408.983 307.956 408.251C306.025 407.52 303.95 407.249 301.896 407.46Z" fill="black"/>
<path d="M429.24 295.908C431.184 303.996 432.408 319.908 429.036 332.124C425.664 344.34 414.384 364.644 414.384 364.644L436.596 354.576C436.596 354.576 441.816 354.372 446.592 361.776C451.368 369.18 446.592 380.196 446.592 380.196C446.592 380.196 419.496 401.472 398.592 414.072C377.892 426.528 367.032 427.608 353.508 421.38C345.744 417.78 345.252 404.58 349.236 390.756C353.22 376.932 368.64 333.156 368.64 333.156L333.288 335.772L346.656 376.104C346.656 376.104 340.224 387.828 321.312 383.832C321.312 383.832 290.868 333.732 286.932 320.16C282.996 306.588 285.396 295.932 300.132 292.632C315.324 289.224 351.732 286.128 351.732 286.128L429.24 295.908Z" fill="#FFA900"/>
<path opacity="0.5" d="M429.24 295.908C431.184 303.996 432.408 319.908 429.036 332.124C425.664 344.34 414.384 364.644 414.384 364.644L436.596 354.576C436.596 354.576 441.816 354.372 446.592 361.776C451.368 369.18 446.592 380.196 446.592 380.196C446.592 380.196 419.496 401.472 398.592 414.072C377.892 426.528 367.032 427.608 353.508 421.38C345.744 417.78 345.252 404.58 349.236 390.756C353.22 376.932 368.64 333.156 368.64 333.156L333.288 335.772L346.656 376.104C346.656 376.104 340.224 387.828 321.312 383.832C321.312 383.832 290.868 333.732 286.932 320.16C282.996 306.588 285.396 295.932 300.132 292.632C315.324 289.224 351.732 286.128 351.732 286.128L429.24 295.908Z" fill="black"/>
<path opacity="0.15" d="M368.664 333.144L371.616 327.624C371.616 327.624 361.74 318.948 358.32 309.492C358.32 309.492 359.748 321.384 364.968 328.692L347.22 334.428L368.664 333.144Z" fill="black"/>
<path opacity="0.15" d="M413.088 381.792C422.58 369.624 442.86 357.576 442.932 357.528C438.972 354.168 436.596 354.576 436.596 354.576L414.384 364.644C414.384 364.644 400.944 393.708 390.012 398.136C399.071 394.934 407.061 389.275 413.088 381.792Z" fill="black"/>
<path opacity="0.15" d="M333.312 335.76C333.312 333.216 328.08 322.416 318.72 318.6C323.022 319.641 327.006 321.715 330.326 324.643C333.647 327.57 336.204 331.262 337.776 335.4L333.312 335.76Z" fill="black"/>
<path d="M350.868 183.192C344.928 182.652 336.468 192.12 331.668 207.108C326.868 222.096 303.528 271.404 303.528 271.404L235.2 270.276L246.132 289.692C246.132 289.692 298.212 293.928 306.276 294.492C317.52 295.272 320.136 293.292 324.744 286.404C329.352 279.516 346.548 249.336 346.548 249.336L350.868 183.192Z" fill="#FFA8A7"/>
<path d="M355.536 181.908C350.628 181.703 345.813 183.299 342 186.396C336.816 190.632 332.628 197.556 327.516 210.012C323.46 219.876 307.896 257.88 307.896 257.88C311.349 262.023 315.637 265.392 320.479 267.768C325.321 270.143 330.61 271.472 336 271.668L363.252 218.22L355.536 181.908Z" fill="#455A64"/>
<path d="M414.84 209.856C421.392 234.492 429.876 299.472 429.876 299.472C419.148 311.94 369.648 311.376 349.404 286.116C347.004 266.136 341.544 250.26 337.164 214.512C335.232 198.756 339.024 187.788 353.82 181.848L381.312 181.908L399.312 182.232C409.128 187.5 412.368 200.568 414.84 209.856Z" fill="#F0F0F0"/>
<path d="M383.328 305.292C403.008 309.744 423.432 306.96 429.876 299.472C429.876 299.472 421.392 234.492 414.84 209.856C413.8 205.633 412.526 201.47 411.024 197.388L393.384 200.484C393.096 207.48 401.316 233.136 407.16 247.284C412.212 259.56 415.752 272.904 414.78 281.604C413.808 290.304 406.572 307.2 383.328 305.292Z" fill="#E6E6E6"/>
<path d="M369.924 125.268C370.308 129.925 369.301 134.59 367.033 138.675C364.764 142.759 361.334 146.079 357.178 148.214C353.022 150.349 348.326 151.203 343.685 150.668C339.043 150.133 334.664 148.234 331.103 145.209C327.541 142.185 324.956 138.173 323.676 133.679C322.395 129.186 322.477 124.414 323.909 119.966C325.342 115.519 328.061 111.597 331.724 108.695C335.386 105.794 339.827 104.045 344.484 103.668C350.721 103.164 356.903 105.155 361.673 109.205C366.443 113.255 369.41 119.032 369.924 125.268Z" fill="#263238"/>
<path d="M388.428 140.628C388.428 140.628 386.028 158.868 384.768 161.94C383.889 163.835 382.317 165.321 380.376 166.092L379.632 153.468L388.428 140.628Z" fill="#263238"/>
<path d="M381.6 115.332C382.923 115.07 384.288 115.113 385.592 115.458C386.896 115.804 388.104 116.442 389.124 117.324C392.52 120.276 391.524 130.524 388.452 140.628L381.336 142.032L381.6 115.332Z" fill="#263238"/>
<path d="M379.2 142.212C380.712 142.956 382.548 140.028 384.168 138.024C385.788 136.02 391.368 133.008 394.788 138.876C398.208 144.744 393.384 153.516 388.932 155.316C381.264 158.412 379.68 153.468 379.68 153.468L381.36 181.908C375.18 190.032 350.796 197.856 355.692 183.216L355.008 174.576C351.518 175.245 347.992 175.71 344.448 175.968C340.428 176.052 335.844 173.436 332.796 164.688C329.004 153.744 328.08 139.488 329.196 125.088C330.648 105.48 353.904 103.104 368.22 110.58C382.536 118.056 379.2 142.212 379.2 142.212Z" fill="#FFA8A7"/>
<path d="M379.344 144.636C379.98 144.276 382.464 139.836 384.144 138.024C386.4 135.6 381.6 115.332 381.6 115.332C381.6 115.332 383.58 110.052 378.372 105.168C375.772 102.64 372.553 100.84 369.037 99.949C365.522 99.058 361.834 99.1074 358.344 100.092C351.324 101.94 344.16 104.184 336.876 102.828C333.276 102.168 329.676 101.124 326.076 100.956C325.655 100.889 325.225 100.988 324.876 101.232C324.726 101.414 324.618 101.626 324.56 101.854C324.502 102.083 324.495 102.321 324.54 102.552C324.697 104.923 325.609 107.182 327.144 108.996L322.596 108.036C322.446 107.953 322.276 107.916 322.105 107.93C321.935 107.943 321.772 108.005 321.637 108.11C321.501 108.215 321.4 108.357 321.344 108.518C321.289 108.68 321.282 108.854 321.324 109.02C321.284 110.625 321.605 112.219 322.263 113.683C322.922 115.147 323.901 116.445 325.128 117.48C330.252 121.752 335.628 122.88 342.24 122.928C350.931 123.137 359.598 121.921 367.896 119.328C370.536 118.752 371.316 121.296 373.332 128.256C375.012 134.4 373.836 147.828 379.344 144.636Z" fill="#263238"/>
<path d="M381.684 116.928L390 111.6C389.677 111.034 389.242 110.539 388.721 110.147C388.2 109.754 387.605 109.472 386.972 109.317C386.339 109.162 385.68 109.138 385.037 109.245C384.394 109.353 383.78 109.591 383.232 109.944C382.133 110.692 381.361 111.831 381.074 113.129C380.786 114.427 381.004 115.786 381.684 116.928Z" fill="#263238"/>
<path d="M354.96 174.576C354.96 174.576 367.68 170.976 372 168.168C374.546 166.571 376.55 164.241 377.748 161.484C377.285 164.181 376.281 166.757 374.796 169.056C371.82 173.544 355.248 178.008 355.248 178.008L354.96 174.576Z" fill="#F28F8F"/>
<path d="M353.868 141.072C353.93 141.575 354.138 142.048 354.466 142.434C354.794 142.82 355.228 143.101 355.714 143.243C356.201 143.384 356.718 143.381 357.202 143.232C357.686 143.083 358.116 142.796 358.438 142.405C358.761 142.015 358.962 141.539 359.017 141.035C359.072 140.532 358.978 140.023 358.747 139.573C358.517 139.122 358.159 138.749 357.718 138.499C357.277 138.249 356.773 138.134 356.268 138.168C355.919 138.198 355.579 138.297 355.268 138.46C354.957 138.623 354.682 138.846 354.459 139.117C354.235 139.387 354.068 139.699 353.967 140.035C353.865 140.371 353.832 140.723 353.868 141.072Z" fill="#263238"/>
<path d="M355.74 131.352L361.524 133.956C361.872 133.159 361.895 132.257 361.588 131.444C361.28 130.63 360.668 129.969 359.88 129.6C359.494 129.433 359.079 129.346 358.659 129.345C358.238 129.343 357.822 129.427 357.435 129.591C357.048 129.754 356.699 129.995 356.407 130.298C356.116 130.6 355.889 130.959 355.74 131.352Z" fill="#263238"/>
<path d="M356.22 158.88L350.484 161.568C350.644 161.955 350.881 162.305 351.18 162.599C351.479 162.892 351.833 163.123 352.223 163.276C352.613 163.43 353.029 163.503 353.448 163.492C353.867 163.481 354.279 163.386 354.66 163.212C355.427 162.829 356.017 162.165 356.307 161.358C356.598 160.552 356.566 159.664 356.22 158.88Z" fill="#F28F8F"/>
<path d="M329.88 136.056L335.232 132.552C335.022 132.193 334.741 131.88 334.406 131.633C334.071 131.385 333.69 131.209 333.285 131.113C332.88 131.018 332.459 131.006 332.049 131.078C331.639 131.15 331.248 131.304 330.9 131.532C330.181 132.011 329.674 132.747 329.484 133.59C329.294 134.432 329.436 135.315 329.88 136.056Z" fill="#263238"/>
<path d="M332.652 142.5C332.714 143.003 332.922 143.476 333.25 143.862C333.578 144.248 334.012 144.529 334.498 144.671C334.985 144.812 335.502 144.809 335.986 144.66C336.47 144.511 336.9 144.224 337.222 143.833C337.545 143.443 337.746 142.967 337.801 142.463C337.856 141.96 337.762 141.451 337.531 141.001C337.301 140.55 336.943 140.177 336.502 139.927C336.061 139.677 335.557 139.562 335.052 139.596C334.702 139.624 334.361 139.723 334.05 139.885C333.738 140.047 333.462 140.271 333.239 140.541C333.015 140.812 332.848 141.125 332.747 141.461C332.646 141.798 332.614 142.151 332.652 142.5Z" fill="#263238"/>
<path d="M346.512 138.696L349.188 154.236L339.648 153.972L346.512 138.696Z" fill="#F28F8F"/>
<path d="M454.8 264.888C456.084 259.848 447.924 241.86 438 222.66C420.672 189.324 413.124 182.664 398.568 183.6L403.104 221.688L429.648 264.888C428.964 268.488 422.712 289.524 416.448 301.368C415.311 303.453 413.45 305.049 411.216 305.856C405.216 308.076 402.396 311.028 397.548 314.376C393.756 317.004 390.924 317.268 391.128 318.384C391.38 319.836 393.156 322.452 397.224 322.08C400.113 321.572 402.932 320.726 405.624 319.56C402.729 323.79 399.223 327.567 395.22 330.768C385.92 338.328 381.072 344.28 396.024 347.568C405.384 349.596 417.564 343.968 428.916 324.696C432.18 319.152 437.508 310.404 440.916 302.988C448.8 285.42 451.092 279.6 454.8 264.888Z" fill="#FFA8A7"/>
<path d="M393.912 182.136C393.912 182.136 388.176 200.136 401.688 222.396C409.728 235.596 421.716 255.996 421.716 255.996C421.716 255.996 444.516 251.472 448.38 239.664C448.38 239.664 438.228 216.672 427.872 200.424C417.516 184.176 413.508 180.432 393.912 182.136Z" fill="#455A64"/>
<path d="M205.776 291.684C201.42 277.824 201.54 268.584 204.576 263.268C206.592 259.668 212.88 258.288 215.568 258.06C218.256 257.832 219.168 259.896 216.708 262.296C214.248 264.696 215.172 266.952 216.492 269.904C218.126 273.241 220.053 276.425 222.252 279.42L205.776 291.684Z" fill="#263238"/>
<path d="M263.412 301.788C264.204 301.633 265.006 301.533 265.812 301.488C268.233 301.33 270.58 300.589 272.652 299.328C274.131 298.38 275.28 296.996 275.94 295.368C276.3 294.064 276.398 292.702 276.228 291.36C276.232 290.272 276.083 289.19 275.784 288.144C274.884 285.324 272.364 283.428 269.94 281.952C264.444 278.616 258.576 281.508 250.44 282.924C244.272 283.992 232.44 274.224 217.932 279.444C203.784 284.556 203.628 299.736 200.784 311.904C196.14 331.764 192.576 326.796 180.84 346.704C171.408 362.748 168.096 375.06 157.512 390.768C152.268 398.532 141.912 412.248 136.62 429.288C130.08 450.324 137.988 465.792 151.572 473.688C163.572 480.708 170.112 483.108 186.84 481.92C196.164 481.26 201.732 477.276 205.44 475.14C212.928 479.46 229.068 467.796 234.744 463.44C245.376 455.292 239.424 448.008 230.076 450.12C226.319 450.978 222.669 452.249 219.192 453.912C219.192 453.912 224.952 442.596 227.208 432.996C229.272 424.188 228.048 416.76 224.7 414.864C226.752 412.668 228.624 410.496 230.34 408.336C231.036 416.208 232.452 435.276 233.004 437.136C233.736 439.536 238.692 444.24 243.192 443.016C247.692 441.792 257.148 437.568 258.528 433.524C260.364 428.1 254.928 427.26 245.676 429.672V429.468C245.94 419.592 246.144 410.064 246.252 400.188C246.324 394.284 246.516 388.38 246.6 382.476C246.672 377.676 247.176 372.948 247.536 368.184C247.776 365.016 247.944 361.86 247.872 358.68C247.704 350.712 246.672 342.036 246.816 338.28C246.948 332.46 247.752 326.4 252 322.272C256.248 318.144 261.768 316.056 266.688 313.08C268.496 312.014 270.199 310.781 271.776 309.396C273.264 308.064 276.204 304.596 275.136 302.376C272.576 304.047 269.502 304.745 266.472 304.344C265.238 304.102 264.093 303.53 263.16 302.688C263.083 302.633 263.02 302.561 262.977 302.478C262.933 302.395 262.909 302.302 262.908 302.208C262.944 301.944 263.196 301.848 263.412 301.788Z" fill="#455A64"/>
<path d="M238.02 270.36C221.808 269.472 217.464 274.884 213.756 277.896C210.048 280.908 202.8 293.736 211.008 296.316C219.216 298.896 226.872 289.38 226.872 289.38L238.02 270.36Z" fill="#FFA8A7"/>
<path d="M246.18 341.916C246.18 340.716 246.276 339.024 246.288 338.208C246.288 337.176 247.32 336.144 247.38 335.112C240.685 335.708 233.954 335.809 227.244 335.412C209.46 334.632 201.504 325.32 201.504 325.32L197.46 322.656C196.459 325 195.142 327.196 193.548 329.184C213.948 345.984 235.908 343.524 242.952 342.636L246.18 341.916Z" fill="#37474F"/>
<path d="M273.792 298.428C276.219 298.689 278.463 299.839 280.092 301.656C281.22 302.964 284.508 310.548 281.952 312.816C279.396 315.084 273.66 312.888 273 307.284C273 307.284 264.084 307.548 261.456 303.78C258.828 300.012 263.16 298.848 267.132 298.692L273.792 298.428Z" fill="#F28F8F"/>
<path d="M275.124 302.4C275.124 302.4 271.44 304.992 271.992 307.344H273C273.157 308.848 273.763 310.27 274.74 311.424C275.782 312.469 277.178 313.085 278.652 313.152C281.748 313.152 280.5 310.548 279.852 307.596C279.204 304.644 276.816 301.86 275.124 302.4Z" fill="#B16668"/>
<path d="M152.016 462.768C153.037 463.628 153.785 464.767 154.169 466.046C154.553 467.325 154.555 468.688 154.176 469.968C154.176 469.968 150.192 476.412 131.508 478.488C113.652 480.468 96.2519 472.764 80.8919 478.488C65.5319 484.212 71.8919 495.852 70.2959 498.888C68.6999 501.924 64.2959 499.848 64.2959 490.668C64.2959 481.488 70.4519 473.148 81.5879 470.508C92.7239 467.868 108.396 469.98 123.276 470.208C138.48 470.448 142.068 464.292 144.456 461.808C147.24 459.012 150 460.86 152.016 462.768Z" fill="#263238"/>
<path d="M275.772 288.144C274.872 285.324 272.352 283.428 269.928 281.952C266.088 279.624 262.068 280.332 257.208 281.46C255.732 282.756 257.88 286.404 260.652 288.42C263.424 290.436 267.852 297.804 257.808 300.324C246.552 303.156 242.784 307.44 239.64 313.704C235.116 322.74 237.396 328.38 239.904 334.5C242.184 340.056 247.872 354.816 247.608 366.9C247.8 364.164 248.112 361.344 248.052 358.596C247.884 350.628 246.72 342.024 246.852 338.268C246.984 332.448 247.788 326.388 252.036 322.26C256.284 318.132 261.804 316.044 266.724 313.068C268.532 312.002 270.235 310.769 271.812 309.384C273.3 308.052 276.24 304.584 275.172 302.364C272.612 304.035 269.538 304.733 266.508 304.332C265.274 304.09 264.129 303.518 263.196 302.676C263.119 302.621 263.056 302.549 263.013 302.466C262.969 302.383 262.945 302.29 262.944 302.196C262.944 301.968 263.244 301.872 263.46 301.812C264.252 301.657 265.054 301.557 265.86 301.512C268.281 301.354 270.628 300.613 272.7 299.352C274.179 298.404 275.328 297.02 275.988 295.392C276.348 294.088 276.446 292.726 276.276 291.384C276.263 290.286 276.093 289.195 275.772 288.144Z" fill="#FAFAFA"/>
<path d="M268.716 284.472C268.656 284.4 268.584 284.328 268.524 284.244C268.337 283.899 268.129 283.566 267.9 283.248C267.455 282.852 266.905 282.594 266.316 282.504C265.464 282.252 264.648 281.808 264.972 280.812C265.068 280.524 265.32 280.404 265.584 280.284C266.523 279.678 267.625 279.373 268.742 279.41C269.859 279.446 270.938 279.822 271.836 280.488C273.919 281.544 275.661 283.166 276.864 285.168C277.416 286.272 276.024 289.692 276.024 289.692C276.059 289.16 275.96 288.628 275.736 288.144C275.088 286.2 271.884 285.84 270.228 285.288C269.671 285.128 269.155 284.85 268.716 284.472Z" fill="#263238"/>
<path d="M252 322.236C256.188 318.168 261.768 316.02 266.688 313.044C267.336 312.648 267.984 312.228 268.608 311.844C260.112 316.644 250.284 312.864 245.592 316.2C240.9 319.536 241.992 329.844 245.592 333.864C248.124 336.66 243.996 337.596 241.248 337.908C241.788 339.312 242.364 340.92 242.964 342.708L246.936 342.096C246.936 340.536 246.792 339.3 246.816 338.316C246.936 332.4 247.74 326.4 252 322.236Z" fill="#E0E0E0"/>
<path d="M227.928 292.692C230.784 295.476 234.732 299.088 237.72 302.508C240.252 305.4 242.184 303.264 244.32 289.908C246.156 278.436 247.164 276.624 249.12 275.964C250.62 275.46 253.248 275.796 253.716 274.764C254.628 272.712 251.472 268.848 244.116 267.636C232.86 265.752 223.44 288.312 227.928 292.692Z" fill="#263238"/>
<path d="M199.428 316.716C199.056 317.916 198.804 318.492 198.804 318.492C198.804 318.492 204.336 326.352 222.6 330.096C240.864 333.84 247.512 331.02 247.512 331.02C247.691 330.126 247.927 329.244 248.22 328.38C248.22 328.38 249.144 329.088 248.796 333.348C248.544 336.42 248.124 337.728 246.468 338.148C241.332 339.348 231.036 339.216 220.944 336.948C205.428 333.468 196.944 326.904 195.564 325.356C194.184 323.808 194.664 322.548 195.744 319.356C196.824 316.164 197.592 316.08 199.428 316.716Z" fill="#FFA900"/>
<path opacity="0.3" d="M199.428 316.716C199.056 317.916 198.804 318.492 198.804 318.492C198.804 318.492 204.336 326.352 222.6 330.096C240.864 333.84 247.512 331.02 247.512 331.02C247.691 330.126 247.927 329.244 248.22 328.38C248.22 328.38 249.144 329.088 248.796 333.348C248.544 336.42 248.124 337.728 246.468 338.148C241.332 339.348 231.036 339.216 220.944 336.948C205.428 333.468 196.944 326.904 195.564 325.356C194.184 323.808 194.664 322.548 195.744 319.356C196.824 316.164 197.592 316.08 199.428 316.716Z" fill="black"/>
<path d="M224.688 414.912C219.336 411.816 206.844 414.432 195.588 428.316C195.588 428.316 196.056 419.52 206.7 413.352C217.344 407.184 225.072 409.26 227.916 411.3L224.688 414.912Z" fill="#37474F"/>
<path d="M222.708 452.4C220.524 453.252 219.18 453.936 219.18 453.936C216.36 459.672 212.616 465.936 212.616 465.936C212.616 465.936 220.188 459.084 222.708 452.4Z" fill="#37474F"/>
<path d="M237.36 450.648C236.674 450.33 235.947 450.112 235.2 450C234.523 450.175 233.87 450.433 233.256 450.768C232.664 451.11 232.11 451.513 231.6 451.968C231.408 452.148 230.304 453.168 230.664 453.468C230.772 453.54 230.904 453.468 231.012 453.468C232.405 452.458 233.948 451.672 235.584 451.14C236.167 450.946 236.76 450.782 237.36 450.648Z" fill="#37474F"/>
<path d="M240.06 453.372C239.903 452.975 239.688 452.603 239.424 452.268C236.712 452.724 233.748 453.6 233.124 455.988C233.124 456.072 233.124 456.384 233.292 456.276C234.389 455.494 235.558 454.819 236.784 454.26C237.836 453.832 238.936 453.534 240.06 453.372Z" fill="#37474F"/>
<path d="M257.88 429.444C257.273 428.982 256.559 428.681 255.804 428.568L255.396 428.652C254.28 428.871 253.254 429.414 252.444 430.212C252.444 430.212 252.444 430.488 252.444 430.452C253.804 429.89 255.247 429.553 256.716 429.456C257.148 429.432 257.52 429.432 257.88 429.444Z" fill="#37474F"/>
<path d="M258.828 431.232C258.788 430.839 258.666 430.458 258.468 430.116C258.145 430.14 257.824 430.188 257.508 430.26C256.536 430.5 255.264 430.956 255.036 432.072C255.036 432.072 255.036 432.276 255.132 432.252C256.058 431.846 257.018 431.521 258 431.28C258.276 431.244 258.552 431.244 258.828 431.232Z" fill="#37474F"/>
<path d="M82.4999 481.656C80.3039 481.14 77.7719 482.7 76.2359 484.212C74.9798 485.465 74.0987 487.045 73.6919 488.772C73.4922 489.646 73.3995 490.54 73.4159 491.436C73.4261 491.886 73.4662 492.335 73.5359 492.78C73.5366 493.211 73.618 493.639 73.7759 494.04C73.8719 494.208 74.0999 494.34 74.2679 494.232C74.3311 494.178 74.3796 494.109 74.409 494.032C74.4384 493.954 74.4476 493.87 74.4359 493.788C74.3519 492.319 74.5182 490.846 74.9279 489.432C75.4267 488.087 76.1179 486.822 76.9799 485.676C78.4799 483.708 80.4719 483.18 82.5239 482.076C82.6559 482.004 82.6559 481.692 82.4999 481.656Z" fill="#E0E0E0"/>
<path d="M80.4 486.228C79.272 486.228 78.108 487.428 77.532 488.34C76.7559 489.523 76.3775 490.923 76.452 492.336C76.512 492.672 77.136 493.044 77.388 492.684C77.7866 491.951 78.0738 491.162 78.24 490.344C78.6347 488.961 79.5628 487.791 80.82 487.092C81.264 486.852 80.688 486.24 80.4 486.228Z" fill="#E0E0E0"/>
<path d="M76.3679 468.708C69.9359 469.236 63.7199 474.804 61.7159 480.708C61.7159 480.828 61.8359 481.188 61.9679 481.008C66.0119 475.68 70.0679 471.48 76.7279 469.584C77.3279 469.44 76.7999 468.672 76.3679 468.708Z" fill="#E0E0E0"/>
<path d="M72.2759 467.568C69.5159 467.076 65.8319 469.872 64.0559 471.78C63.8279 472.02 64.2359 472.596 64.5239 472.464C65.9452 471.718 67.3161 470.881 68.6279 469.956C69.9039 469.326 71.2186 468.776 72.5639 468.312C72.9239 468.144 72.5159 467.616 72.2759 467.568Z" fill="#E0E0E0"/>
</svg>
