<svg width="104" height="105" viewBox="0 0 104 105" fill="none" xmlns="http://www.w3.org/2000/svg">
<path d="M3.71569 65.9359C-3.42962 39.2692 12.3956 11.8591 39.0623 4.7138C65.7289 -2.43152 93.139 13.3937 100.284 40.0604C107.43 66.727 91.6044 94.1371 64.9377 101.282C38.2711 108.428 10.861 92.6025 3.71569 65.9359Z" fill="#890075"/>
<path d="M71.7161 47.7152C73.8623 63.2394 71.1826 72.0086 63.6708 74.0214L52.4045 77.0402C44.8927 79.053 38.1874 72.7984 32.2839 58.281L46.7172 33.2821L71.7161 47.7152Z" fill="white"/>
<path d="M52.2023 65.0192C52.7056 66.8978 53.8949 67.5844 55.7735 67.0811C57.6522 66.5777 58.3388 65.3884 57.8354 63.5098L52.2023 65.0192Z" fill="#FFA900"/>
<path d="M26.2463 35.7483L43.8779 33.9522L31.3555 57.4974C31.0106 58.1844 30.4133 58.7113 29.6887 58.9679C28.964 59.2245 28.1683 59.1909 27.4679 58.8741C26.9935 58.6616 26.5882 58.3202 26.2981 57.8889C26.008 57.4575 25.8448 56.9534 25.8268 56.4339L26.2463 35.7483Z" fill="#FFA900"/>
<path d="M65.6785 25.1825L49.511 32.4428L72.1283 46.5723C73.4446 47.4513 75.2596 47.1159 76.1835 45.8208C76.488 45.3995 76.6683 44.9013 76.7039 44.3827C76.7394 43.8641 76.6288 43.3459 76.3845 42.887L65.6785 25.1825Z" fill="#FFA900"/>
<path d="M43.9005 34.0367L49.5337 32.5273M56.5283 69.8976L58.0377 75.5308M45.6122 51.6909L45.6199 51.7197M56.8785 48.6721L56.8862 48.7009M64.9377 101.282C38.2711 108.428 10.861 92.6025 3.71569 65.9359C-3.42962 39.2692 12.3956 11.8591 39.0623 4.7138C65.7289 -2.43152 93.139 13.3937 100.284 40.0604C107.43 66.727 91.6044 94.1371 64.9377 101.282ZM71.7161 47.7152C73.8623 63.2394 71.1826 72.0086 63.6708 74.0214L52.4045 77.0402C44.8927 79.053 38.1874 72.7984 32.2839 58.281L46.7172 33.2821L71.7161 47.7152ZM52.2023 65.0192C52.7056 66.8978 53.8949 67.5844 55.7735 67.0811C57.6522 66.5777 58.3388 65.3884 57.8354 63.5098L52.2023 65.0192ZM26.2463 35.7483L43.8779 33.9522L31.3555 57.4974C31.0106 58.1844 30.4133 58.7113 29.6887 58.9679C28.964 59.2245 28.1683 59.1909 27.4679 58.8741C26.9935 58.6616 26.5882 58.3202 26.2981 57.8889C26.008 57.4575 25.8448 56.9534 25.8268 56.4339L26.2463 35.7483ZM65.6785 25.1825L49.511 32.4428L72.1283 46.5723C73.4446 47.4513 75.2596 47.1159 76.1835 45.8208C76.488 45.3995 76.6683 44.9013 76.7039 44.3827C76.7394 43.8641 76.6288 43.3459 76.3845 42.887L65.6785 25.1825Z" stroke="#092325" stroke-width="4" stroke-linecap="round" stroke-linejoin="round"/>
</svg>
